<?xml version="1.0" standalone="no"?><!DOCTYPE svg PUBLIC "-//W3C//DTD SVG 1.1//EN" "http://www.w3.org/Graphics/SVG/1.1/DTD/svg11.dtd"><svg t="1583747101816" class="icon" viewBox="0 0 1024 1024" version="1.1" xmlns="http://www.w3.org/2000/svg" p-id="3080" xmlns:xlink="http://www.w3.org/1999/xlink" width="200" height="200"><defs><style type="text/css"></style></defs><path d="M827.392 585.216c-36.352 0-69.12 13.824-94.208 36.352l-54.272-54.272c16.896-23.552 27.136-52.224 27.136-83.456 0-29.184-8.704-56.32-24.064-79.36l51.712-51.712c18.944 12.8 41.472 19.968 65.536 19.968 65.024 0 118.272-53.248 118.272-118.272s-52.736-118.272-118.272-118.272S680.96 189.44 680.96 254.464c0 29.184 10.752 55.808 28.16 76.288l-48.64 48.64c-25.6-24.576-60.416-39.424-98.304-39.424-31.232 0-59.904 10.24-83.456 27.136L425.472 313.856c20.992-26.112 33.28-58.88 33.28-94.72 0-83.968-68.096-152.064-152.064-152.064S154.624 135.168 154.624 219.136 223.232 371.2 307.2 371.2c36.352 0 69.632-12.8 95.744-34.304L454.656 389.12c-22.016 25.088-35.84 58.368-35.84 94.72 0 37.888 14.848 72.704 38.912 98.304l-50.688 50.688c-35.328-32.256-81.92-51.712-133.12-51.712-109.056 0-197.632 88.576-197.632 197.632s88.576 197.632 197.632 197.632 197.632-88.576 197.632-197.632c0-46.08-15.872-88.576-42.496-122.368l53.248-53.248c22.528 15.36 50.176 24.064 79.36 24.064 36.352 0 69.12-13.312 94.72-35.84l54.784 54.784c-15.872 22.528-24.576 50.176-24.576 79.36 0 77.312 62.976 140.288 140.288 140.288s140.288-62.976 140.288-140.288-62.464-140.288-139.776-140.288z" p-id="3081"></path></svg>